<svg width="13" height="13" viewBox="0 0 13 13" fill="none" xmlns="http://www.w3.org/2000/svg">
<path d="M12.4999 0.986403L12.4999 0.995741L12.4997 9.76162V9.76189C12.4992 10.0351 12.2781 10.2569 12.0046 10.2569C11.8677 10.2569 11.744 10.2015 11.6544 10.1118M12.4999 0.986403L11.6594 9.76197L11.5094 9.76169C11.5092 9.89838 11.5649 10.0225 11.6544 10.1118M12.4999 0.986403L12.4987 0.977137M12.4999 0.986403L12.4987 0.977137M11.6544 10.1118L11.7604 10.0058L11.6545 10.112C11.6545 10.1119 11.6544 10.1119 11.6544 10.1118ZM12.4987 0.977137C12.4987 0.97683 12.4987 0.976525 12.4986 0.976221L12.4987 0.977137ZM11.5093 1.97898L11.6593 1.82899L11.6593 2.04111L11.5093 2.19111L11.5093 1.97898ZM12.4991 0.992285L12.499 0.989942L12.4991 0.992285ZM12.2491 0.751908C12.2489 0.751632 12.2488 0.751356 12.2486 0.75108L12.3228 0.863136C12.3059 0.822043 12.281 0.784576 12.2499 0.753152C12.2495 0.752737 12.2493 0.752323 12.2491 0.751908ZM3.23814 1.49088H10.8085L3.23805 1.34088V1.49088H3.23814ZM12.4903 0.942418C12.4906 0.943473 12.4913 0.945192 12.492 0.947411L12.4903 0.942418Z" fill="#111111" stroke="#111111" stroke-width="0.3"/>
</svg>
