<svg width="36" height="36" viewBox="0 0 36 36" fill="none" xmlns="http://www.w3.org/2000/svg">
<path d="M34.6297 11.1371C34.5517 9.36696 34.2654 8.14998 33.8553 7.09544C33.4323 5.97608 32.7815 4.97392 31.9288 4.14082C31.0957 3.29475 30.0869 2.63732 28.9805 2.22089C27.9199 1.81083 26.7093 1.52457 24.9391 1.44652C23.1557 1.36186 22.5895 1.34229 18.0663 1.34229C13.5431 1.34229 12.9769 1.36186 11.2001 1.43991C9.42995 1.51796 8.21297 1.80447 7.15869 2.21428C6.03907 2.63732 5.03691 3.28814 4.20381 4.14082C3.35774 4.97392 2.70056 5.98269 2.28388 7.08909C1.87381 8.14998 1.58755 9.36035 1.50951 11.1305C1.42485 12.9139 1.40527 13.4801 1.40527 18.0033C1.40527 22.5265 1.42485 23.0927 1.5029 24.8695C1.58094 26.6397 1.86746 27.8566 2.27753 28.9112C2.70056 30.0305 3.35774 31.0327 4.20381 31.8658C5.03691 32.7119 6.04568 33.3693 7.15208 33.7857C8.21297 34.1958 9.42334 34.4821 11.1938 34.5601C12.9703 34.6384 13.5367 34.6577 18.0599 34.6577C22.5832 34.6577 23.1493 34.6384 24.9261 34.5601C26.6963 34.4821 27.9133 34.1958 28.9676 33.7857C31.2065 32.9201 32.9767 31.1499 33.8424 28.9112C34.2522 27.8503 34.5387 26.6397 34.6167 24.8695C34.6948 23.0927 34.7144 22.5265 34.7144 18.0033C34.7144 13.4801 34.7077 12.9139 34.6297 11.1371ZM31.6296 24.7393C31.5579 26.3664 31.2846 27.245 31.0568 27.8307C30.497 29.2821 29.3451 30.434 27.8937 30.9938C27.308 31.2216 26.423 31.4949 24.8023 31.5663C23.0451 31.6446 22.5181 31.6639 18.0729 31.6639C13.6277 31.6639 13.0941 31.6446 11.3433 31.5663C9.71621 31.4949 8.8376 31.2216 8.25186 30.9938C7.5296 30.7269 6.87217 30.3038 6.33855 29.7506C5.78535 29.2104 5.36232 28.5596 5.09538 27.8373C4.86759 27.2516 4.5943 26.3664 4.52286 24.7459C4.44456 22.9887 4.42524 22.4614 4.42524 18.0163C4.42524 13.5711 4.44456 13.0375 4.52286 11.2869C4.5943 9.65983 4.86759 8.78122 5.09538 8.19548C5.36232 7.47297 5.78535 6.81579 6.34516 6.28192C6.88514 5.72872 7.53596 5.30569 8.25847 5.039C8.84421 4.81121 9.72943 4.53792 11.3499 4.46623C13.1071 4.38818 13.6344 4.3686 18.0793 4.3686C22.531 4.3686 23.058 4.38818 24.8089 4.46623C26.436 4.53792 27.3146 4.81121 27.9003 5.039C28.6226 5.30569 29.28 5.72872 29.8136 6.28192C30.3668 6.82215 30.7899 7.47297 31.0568 8.19548C31.2846 8.78122 31.5579 9.66619 31.6296 11.2869C31.7076 13.0441 31.7272 13.5711 31.7272 18.0163C31.7272 22.4614 31.7076 22.9821 31.6296 24.7393Z" fill="white"/>
<path d="M18.0664 9.44531C13.3415 9.44531 9.50806 13.2785 9.50806 18.0036C9.50806 22.7287 13.3415 26.5619 18.0664 26.5619C22.7914 26.5619 26.6247 22.7287 26.6247 18.0036C26.6247 13.2785 22.7914 9.44531 18.0664 9.44531ZM18.0664 23.5552C15.0011 23.5552 12.5148 21.0691 12.5148 18.0036C12.5148 14.9381 15.0011 12.4521 18.0664 12.4521C21.1318 12.4521 23.6179 14.9381 23.6179 18.0036C23.6179 21.0691 21.1318 23.5552 18.0664 23.5552Z" fill="white"/>
<path d="M28.9606 9.10686C28.9606 10.2102 28.0659 11.1048 26.9623 11.1048C25.859 11.1048 24.9644 10.2102 24.9644 9.10686C24.9644 8.00326 25.859 7.10889 26.9623 7.10889C28.0659 7.10889 28.9606 8.00326 28.9606 9.10686Z" fill="white"/>
</svg>
