<svg width="140" height="50" viewBox="0 0 140 50" fill="none" xmlns="http://www.w3.org/2000/svg">
<path fill-rule="evenodd" clip-rule="evenodd" d="M115.844 7.05615H93.8483L89.569 23.847L86.9039 14.7166C86.0967 11.7918 85.3505 9.23077 84.6652 7.05615H62.7251V43.0171H76.8222L76.8678 19.2856L83.7667 43.0171H95.2799L101.813 18.7401L101.859 43.0171H115.844V7.05615Z" fill="white"/>
<path fill-rule="evenodd" clip-rule="evenodd" d="M7.18994 7.07251H24.1726C24.8921 7.07615 30.4453 7.13465 34.8711 7.25304C44.0417 7.49837 51.706 9.11082 54.6804 14.6812C56.6415 18.3536 55.641 24.1306 50.696 26.9072C47.9293 28.4608 45.8303 29.1543 45.8303 29.1543L59.1695 43.0178L39.3423 43.0524L29.5155 30.8741H24.1726V43.0247H7.18994V7.07251ZM24.1726 7.07251V23.3564L32.2822 23.3565C35.7322 23.3565 38.7482 21.3531 38.7783 19.1315C38.8063 17.0713 36.4631 15.417 32.4433 14.9855C31.6888 14.9045 24.3548 14.9631 24.1726 14.959V7.07251Z" fill="white"/>
<path fill-rule="evenodd" clip-rule="evenodd" d="M3.55205 47.9568H0V1.15942H3.55205V47.9568Z" fill="white"/>
<path fill-rule="evenodd" clip-rule="evenodd" d="M120.722 0V3.53505H0.0322266V0H120.722Z" fill="white"/>
<path fill-rule="evenodd" clip-rule="evenodd" d="M0.0373535 49.9996V46.4646H120.288V49.9996H0.0373535Z" fill="white"/>
<path fill-rule="evenodd" clip-rule="evenodd" d="M140 0H119.358V50H140V0ZM129.662 46.5031V44.6606H129.074C128.76 44.6606 128.565 44.644 128.491 44.6108C128.416 44.5793 128.378 44.4963 128.378 44.3618C128.378 44.244 128.423 44.1594 128.512 44.1095C128.601 44.0581 128.792 44.0332 129.086 44.0332C129.321 44.0332 129.476 44.0564 129.553 44.1012C129.629 44.1477 129.777 44.493 129.998 45.1387C130.2 45.7429 130.378 46.1213 130.531 46.274C130.685 46.4267 130.971 46.5031 131.392 46.5031H131.855C132.423 46.5031 132.79 46.3603 132.959 46.0732C133.127 45.786 133.211 45.4706 133.211 45.127C133.211 44.8631 133.16 44.6374 133.059 44.4482C132.958 44.2589 132.807 44.1029 132.605 43.9834H133.107V42.0712H130.284C129.354 42.0712 128.74 42.1061 128.442 42.1741C128.144 42.2422 127.893 42.4447 127.689 42.7816C127.483 43.1186 127.381 43.6199 127.381 44.2838C127.381 44.8399 127.472 45.2897 127.653 45.6367C127.833 45.9835 128.042 46.2159 128.277 46.3305C128.514 46.445 128.85 46.5031 129.285 46.5031H129.662ZM130.938 44.5843C130.802 44.5345 130.634 44.3502 130.433 44.0332H131.59C131.873 44.0332 132.047 44.0515 132.113 44.0896C132.18 44.1278 132.213 44.2075 132.213 44.332C132.213 44.4631 132.171 44.5511 132.086 44.5942C132.001 44.6391 131.814 44.6606 131.522 44.6606C131.267 44.6606 131.074 44.6357 130.938 44.5843ZM128.225 39.5134L127.485 39.4437V41.3956H133.107V39.4337H130.886C130.339 39.4337 129.991 39.4138 129.84 39.3756C129.688 39.3358 129.571 39.2328 129.486 39.0635C129.401 38.8942 129.359 38.6287 129.359 38.2685H127.381C127.413 38.8112 127.693 39.2262 128.225 39.5134ZM129.61 35.3322V33.4797C129.081 33.4797 128.672 33.5395 128.383 33.6606C128.094 33.7802 127.855 34.0225 127.666 34.386C127.476 34.7512 127.381 35.1894 127.381 35.7023C127.381 36.2202 127.476 36.6584 127.667 37.0186C127.858 37.3804 128.075 37.6161 128.318 37.7257C128.561 37.8369 128.921 37.8917 129.399 37.8917H130.997C131.547 37.8917 131.969 37.8236 132.268 37.6891C132.566 37.5547 132.797 37.324 132.962 37.0003C133.128 36.675 133.211 36.2335 133.211 35.6791C133.211 35.2425 133.152 34.8773 133.032 34.5819C132.912 34.2864 132.734 34.0457 132.498 33.8631C132.262 33.6789 132.032 33.5693 131.808 33.5361C131.584 33.5013 131.247 33.483 130.799 33.4797V35.2325H131.466C131.756 35.2325 131.953 35.2558 132.057 35.3039C132.161 35.3521 132.213 35.4433 132.213 35.5778C132.213 35.694 132.163 35.782 132.063 35.8401C131.963 35.8998 131.813 35.9297 131.612 35.9297H128.958C128.712 35.9297 128.555 35.9098 128.484 35.8699C128.413 35.8301 128.378 35.7521 128.378 35.6359C128.378 35.5197 128.419 35.44 128.5 35.3969C128.581 35.3537 128.734 35.3322 128.96 35.3322H129.61ZM127.79 30.9434H126.244V32.9054H133.107V30.9434H129.094C128.809 30.9434 128.618 30.9218 128.523 30.8804C128.426 30.8372 128.378 30.7559 128.378 30.6347C128.378 30.5036 128.425 30.4206 128.519 30.3824C128.611 30.3442 128.822 30.326 129.149 30.326H133.107V28.364H129.229C128.701 28.364 128.337 28.3905 128.137 28.4437C127.937 28.4984 127.762 28.6461 127.609 28.8868C127.457 29.1292 127.381 29.4213 127.381 29.7649C127.381 29.989 127.415 30.1998 127.483 30.3957C127.551 30.5915 127.654 30.7741 127.79 30.9434ZM127.138 25.665H126.244V27.6867H127.138V25.665ZM133.107 25.665H127.485V27.6867H133.107V25.665ZM127.624 22.8964H126.739V24.8583H127.624V25.2766H128.517V24.8583H131.369C131.927 24.8583 132.281 24.8401 132.431 24.8052C132.583 24.7687 132.716 24.6774 132.833 24.5313C132.951 24.3852 133.026 24.216 133.058 24.0251C133.091 23.8325 133.107 23.5122 133.107 23.064V22.2689H132.204C132.204 22.5976 132.183 22.7835 132.141 22.8283C132.099 22.8731 131.892 22.8964 131.523 22.8964H128.517V22.3486H127.624V22.8964ZM130.391 20.0214V17.4719H129.647C129.101 17.4719 128.678 17.5433 128.378 17.6877C128.078 17.8321 127.836 18.0844 127.654 18.4429C127.472 18.8014 127.381 19.2562 127.381 19.8073C127.381 20.2588 127.456 20.6572 127.608 21.0057C127.758 21.3527 127.976 21.6016 128.26 21.7544C128.545 21.9071 128.932 21.9834 129.424 21.9834H131.065C131.484 21.9834 131.802 21.9486 132.021 21.8805C132.241 21.8125 132.442 21.6913 132.624 21.5137C132.806 21.3361 132.949 21.0887 133.053 20.7717C133.159 20.453 133.211 20.0862 133.211 19.6712C133.211 19.243 133.157 18.8878 133.052 18.6039C132.945 18.3201 132.786 18.0844 132.573 17.9001C132.361 17.7159 132.161 17.598 131.975 17.5466C131.788 17.4968 131.521 17.4719 131.172 17.4719H130.756V19.3343H131.499C131.779 19.3343 131.969 19.3591 132.067 19.4106C132.164 19.4604 132.213 19.5617 132.213 19.7127C132.213 19.8339 132.177 19.9152 132.103 19.9584C132.029 19.9999 131.865 20.0214 131.61 20.0214H130.391ZM129.07 19.4338H129.48V20.0214H129.07C128.753 20.0214 128.559 20.0049 128.487 19.9717C128.415 19.9385 128.378 19.8521 128.378 19.7127C128.378 19.5998 128.42 19.5252 128.506 19.4886C128.591 19.4521 128.778 19.4338 129.07 19.4338ZM129.61 14.3331V12.4807C129.081 12.4807 128.672 12.5404 128.383 12.6616C128.094 12.7811 127.855 13.0234 127.666 13.3869C127.476 13.7521 127.381 14.1903 127.381 14.7032C127.381 15.2211 127.476 15.6593 127.667 16.0195C127.858 16.3814 128.075 16.617 128.318 16.7266C128.561 16.8378 128.921 16.8926 129.399 16.8926H130.997C131.547 16.8926 131.969 16.8246 132.268 16.6901C132.566 16.5556 132.797 16.3249 132.962 16.0012C133.128 15.6759 133.211 15.2344 133.211 14.68C133.211 14.2434 133.152 13.8783 133.032 13.5828C132.912 13.2873 132.734 13.0467 132.498 12.8641C132.262 12.6798 132.032 12.5703 131.808 12.5371C131.584 12.5022 131.247 12.484 130.799 12.4807V14.2335H131.466C131.756 14.2335 131.953 14.2567 132.057 14.3048C132.161 14.353 132.213 14.4443 132.213 14.5787C132.213 14.6949 132.163 14.7829 132.063 14.841C131.963 14.9007 131.813 14.9306 131.612 14.9306H128.958C128.712 14.9306 128.555 14.9107 128.484 14.8709C128.413 14.831 128.378 14.753 128.378 14.6368C128.378 14.5206 128.419 14.441 128.5 14.3978C128.581 14.3547 128.734 14.3331 128.96 14.3331H129.61ZM127.624 9.84478H126.739V11.8067H127.624V12.225H128.517V11.8067H131.369C131.927 11.8067 132.281 11.7885 132.431 11.7536C132.583 11.7171 132.716 11.6258 132.833 11.4797C132.951 11.3337 133.026 11.1644 133.058 10.9735C133.091 10.7809 133.107 10.4606 133.107 10.0124V9.21734H132.204C132.204 9.546 132.183 9.7319 132.141 9.77669C132.099 9.82152 131.892 9.84478 131.523 9.84478H128.517V9.29699H127.624V9.84478ZM129.281 6.59144V4.85852H128.954C128.672 4.85852 128.464 4.8751 128.331 4.90996C128.198 4.94315 128.053 5.04111 127.898 5.20043C127.742 5.36145 127.618 5.59052 127.522 5.89097C127.428 6.18971 127.381 6.55326 127.381 6.98149C127.381 7.41139 127.439 7.78985 127.554 8.11518C127.67 8.44052 127.835 8.67125 128.049 8.80735C128.261 8.94348 128.592 9.01153 129.042 9.01153C129.359 9.01153 129.632 8.94843 129.862 8.8223C130.093 8.69614 130.349 8.34426 130.631 7.76829C130.965 7.08274 131.166 6.70265 131.234 6.62795C131.302 6.55655 131.47 6.52169 131.739 6.52169C131.933 6.52169 132.061 6.54994 132.122 6.60469C132.183 6.65949 132.213 6.75575 132.213 6.89517C132.213 7.023 132.168 7.10929 132.079 7.15411C131.988 7.19727 131.792 7.21884 131.492 7.21884H131.137V8.96172H131.408C131.876 8.96172 132.226 8.89534 132.457 8.76252C132.689 8.62975 132.872 8.38576 133.008 8.03052C133.143 7.67698 133.211 7.24875 133.211 6.75076C133.211 6.29927 133.149 5.91585 133.023 5.59551C132.897 5.27679 132.716 5.04942 132.484 4.91328C132.251 4.77718 131.905 4.70913 131.447 4.70913C131.038 4.70913 130.725 4.79874 130.511 4.97635C130.296 5.15398 130.067 5.5258 129.824 6.09512C129.641 6.52169 129.501 6.80389 129.404 6.93999C129.308 7.07775 129.22 7.16076 129.139 7.1873C129.059 7.21555 128.932 7.22881 128.76 7.22881C128.633 7.22881 128.538 7.2006 128.474 7.14581C128.41 7.09105 128.378 7.00804 128.378 6.89849C128.378 6.76239 128.413 6.67607 128.483 6.64287C128.552 6.60802 128.715 6.59144 128.976 6.59144H129.281Z" fill="white"/>
</svg>
