<svg width="30" height="30" viewBox="0 0 30 30" fill="none" xmlns="http://www.w3.org/2000/svg">
<path d="M26.25 5.00001C25.9185 5.00001 25.6005 5.13171 25.3661 5.36613C25.1317 5.60055 25 5.91849 25 6.25001V7.50501C23.8348 5.95308 22.325 4.69312 20.5896 3.82454C18.8542 2.95596 16.9406 2.50253 15 2.50001C12.1637 2.48685 9.40815 3.44392 7.19064 5.21238C4.97313 6.98084 3.42698 9.45437 2.80875 12.2225C2.73515 12.5459 2.79304 12.8853 2.96967 13.166C3.14631 13.4467 3.42723 13.6458 3.75063 13.7194C4.07402 13.793 4.41341 13.7351 4.69413 13.5585C4.97485 13.3818 5.1739 13.1009 5.2475 12.7775C5.74178 10.563 6.97857 8.58409 8.75255 7.16937C10.5265 5.75464 12.731 4.98916 15 5.00001C18.6063 5.00001 21.8775 6.95626 23.6425 10H21.25C20.9185 10 20.6005 10.1317 20.3661 10.3661C20.1317 10.6005 20 10.9185 20 11.25C20 11.5815 20.1317 11.8995 20.3661 12.1339C20.6005 12.3683 20.9185 12.5 21.25 12.5H26.25C26.5815 12.5 26.8995 12.3683 27.1339 12.1339C27.3683 11.8995 27.5 11.5815 27.5 11.25V6.25001C27.5 5.91849 27.3683 5.60055 27.1339 5.36613C26.8995 5.13171 26.5815 5.00001 26.25 5.00001ZM3.75 25C4.08152 25 4.39946 24.8683 4.63388 24.6339C4.8683 24.3995 5 24.0815 5 23.75V22.4688C6.15586 24.0325 7.66314 25.3026 9.40021 26.1765C11.1373 27.0505 13.0555 27.5038 15 27.5C17.8363 27.5132 20.5918 26.5561 22.8094 24.7876C25.0269 23.0192 26.573 20.5457 27.1913 17.7775C27.2649 17.4541 27.207 17.1147 27.0303 16.834C26.8537 16.5533 26.5728 16.3542 26.2494 16.2806C25.926 16.207 25.5866 16.2649 25.3059 16.4416C25.0252 16.6182 24.8261 16.8991 24.7525 17.2225C24.2582 19.437 23.0214 21.4159 21.2474 22.8307C19.4735 24.2454 17.269 25.0109 15 25C11.3925 25 8.1525 23.09 6.365 20H8.75C9.08152 20 9.39946 19.8683 9.63388 19.6339C9.8683 19.3995 10 19.0815 10 18.75C10 18.4185 9.8683 18.1005 9.63388 17.8661C9.39946 17.6317 9.08152 17.5 8.75 17.5H3.75C3.41848 17.5 3.10054 17.6317 2.86612 17.8661C2.6317 18.1005 2.5 18.4185 2.5 18.75V23.75C2.5 24.0815 2.6317 24.3995 2.86612 24.6339C3.10054 24.8683 3.41848 25 3.75 25Z" fill="#333333"/>
</svg>
