<svg width="40" height="40" viewBox="0 0 40 40" fill="none" xmlns="http://www.w3.org/2000/svg">
<path d="M19.5176 8.04756C19.5173 7.96541 19.5333 7.88403 19.5647 7.80809C19.596 7.73215 19.642 7.66315 19.7001 7.60506C19.7582 7.54698 19.8272 7.50095 19.9031 7.46963C19.9791 7.43831 20.0604 7.42231 20.1426 7.42256C26.8301 7.27881 32.7176 13.1726 32.5801 19.8538C32.5801 20.0196 32.5142 20.1785 32.397 20.2957C32.2798 20.413 32.1209 20.4788 31.9551 20.4788C31.7893 20.4788 31.6304 20.413 31.5132 20.2957C31.3959 20.1785 31.3301 20.0196 31.3301 19.8538C31.4551 13.8401 26.1551 8.54756 20.1426 8.67256C19.977 8.67206 19.8183 8.60606 19.7012 8.48895C19.5841 8.37185 19.5181 8.21317 19.5176 8.04756ZM36.8488 33.8476C36.1303 34.9209 35.1692 35.8101 34.0432 36.4431C32.9172 37.0762 31.6581 37.4352 30.3676 37.4913C27.9632 37.5957 25.5782 36.4994 23.4676 35.5226C19.2473 33.6952 15.4222 31.0652 12.2051 27.7788C8.964 24.6031 6.35903 20.8378 4.53009 16.6851C1.41134 10.7663 1.95509 5.97256 6.08009 3.22256C7.77384 1.99756 9.84884 2.35381 11.3551 4.14131C12.9909 6.0372 14.5103 8.03043 15.9051 10.1101C16.7801 12.0601 15.3926 13.4288 14.2801 14.5288C12.8676 15.9226 12.1863 16.7226 13.3676 18.1913C15.7862 21.55 18.7501 24.4801 22.1363 26.8601C23.7301 28.0876 25.1963 25.8319 26.5676 24.7038C26.9892 24.2381 27.5565 23.9295 28.1765 23.8284C28.7965 23.7273 29.4324 23.8399 29.9801 24.1476C32.342 25.8457 35.1782 27.6369 36.9113 29.8726C37.2852 30.4706 37.4783 31.164 37.4672 31.8693C37.4561 32.5745 37.2414 33.2615 36.8488 33.8476Z" fill="white"/>
<path d="M19.5176 3.32256C19.5178 3.24003 19.5344 3.15836 19.5663 3.08223C19.5981 3.00611 19.6447 2.93703 19.7034 2.87896C19.762 2.82089 19.8316 2.77497 19.908 2.74384C19.9845 2.71271 20.0663 2.69699 20.1488 2.69756C29.3676 2.50506 37.4932 10.6369 37.3051 19.8538C37.3051 20.0196 37.2392 20.1785 37.122 20.2958C37.0048 20.413 36.8458 20.4788 36.6801 20.4788C36.5143 20.4788 36.3553 20.413 36.2381 20.2958C36.1209 20.1785 36.0551 20.0196 36.0551 19.8538C36.2332 11.3063 28.6932 3.76756 20.1488 3.94756C20.0663 3.94814 19.9845 3.93241 19.908 3.90129C19.8316 3.87016 19.762 3.82424 19.7034 3.76617C19.6447 3.7081 19.5981 3.63902 19.5663 3.5629C19.5344 3.48677 19.5178 3.4051 19.5176 3.32256ZM19.5176 12.7663C19.5181 12.6007 19.5841 12.442 19.7012 12.3249C19.8183 12.2078 19.977 12.1418 20.1426 12.1413C22.187 12.1446 24.1468 12.9582 25.5925 14.4039C27.0381 15.8496 27.8518 17.8093 27.8551 19.8538C27.8551 20.0196 27.7892 20.1785 27.672 20.2958C27.5548 20.413 27.3958 20.4788 27.2301 20.4788C27.0643 20.4788 26.9053 20.413 26.7881 20.2958C26.6709 20.1785 26.6051 20.0196 26.6051 19.8538C26.6028 18.1406 25.9212 16.4981 24.7097 15.2867C23.4982 14.0752 21.8558 13.3936 20.1426 13.3913C20.0604 13.3916 19.9791 13.3756 19.9031 13.3442C19.8272 13.3129 19.7582 13.2669 19.7001 13.2088C19.642 13.1507 19.596 13.0817 19.5647 13.0058C19.5333 12.9298 19.5173 12.8485 19.5176 12.7663Z" fill="white"/>
</svg>
