<svg width="40" height="40" viewBox="0 0 40 40" fill="none" xmlns="http://www.w3.org/2000/svg">
<path d="M19.5176 8.04744C19.5173 7.96529 19.5333 7.88391 19.5647 7.80797C19.596 7.73203 19.642 7.66303 19.7001 7.60494C19.7582 7.54686 19.8272 7.50083 19.9031 7.46951C19.9791 7.43818 20.0604 7.42219 20.1426 7.42244C26.8301 7.27869 32.7176 13.1724 32.5801 19.8537C32.5801 20.0194 32.5142 20.1784 32.397 20.2956C32.2798 20.4128 32.1209 20.4787 31.9551 20.4787C31.7893 20.4787 31.6304 20.4128 31.5132 20.2956C31.3959 20.1784 31.3301 20.0194 31.3301 19.8537C31.4551 13.8399 26.1551 8.54744 20.1426 8.67244C19.977 8.67194 19.8183 8.60593 19.7012 8.48883C19.5841 8.37173 19.5181 8.21304 19.5176 8.04744ZM36.8488 33.8474C36.1303 34.9208 35.1692 35.81 34.0432 36.443C32.9172 37.076 31.6581 37.4351 30.3676 37.4912C27.9632 37.5956 25.5782 36.4993 23.4676 35.5224C19.2473 33.6951 15.4222 31.0651 12.2051 27.7787C8.964 24.603 6.35903 20.8376 4.53009 16.6849C1.41134 10.7662 1.95509 5.97244 6.08009 3.22244C7.77384 1.99744 9.84884 2.35369 11.3551 4.14119C12.9909 6.03708 14.5103 8.03031 15.9051 10.1099C16.7801 12.0599 15.3926 13.4287 14.2801 14.5287C12.8676 15.9224 12.1863 16.7224 13.3676 18.1912C15.7862 21.5499 18.7501 24.48 22.1363 26.8599C23.7301 28.0874 25.1963 25.8318 26.5676 24.7037C26.9892 24.238 27.5565 23.9293 28.1765 23.8283C28.7965 23.7272 29.4324 23.8398 29.9801 24.1474C32.342 25.8456 35.1782 27.6368 36.9113 29.8724C37.2852 30.4705 37.4783 31.1639 37.4672 31.8692C37.4561 32.5744 37.2414 33.2614 36.8488 33.8474Z" fill="#333333"/>
<path d="M19.5176 3.32244C19.5178 3.23991 19.5344 3.15823 19.5663 3.08211C19.5981 3.00598 19.6447 2.9369 19.7034 2.87883C19.762 2.82076 19.8316 2.77485 19.908 2.74372C19.9845 2.71259 20.0663 2.69687 20.1488 2.69744C29.3676 2.50494 37.4932 10.6368 37.3051 19.8537C37.3051 20.0195 37.2392 20.1784 37.122 20.2956C37.0048 20.4128 36.8458 20.4787 36.6801 20.4787C36.5143 20.4787 36.3553 20.4128 36.2381 20.2956C36.1209 20.1784 36.0551 20.0195 36.0551 19.8537C36.2332 11.3062 28.6932 3.76744 20.1488 3.94744C20.0663 3.94802 19.9845 3.93229 19.908 3.90116C19.8316 3.87004 19.762 3.82412 19.7034 3.76605C19.6447 3.70798 19.5981 3.6389 19.5663 3.56277C19.5344 3.48665 19.5178 3.40498 19.5176 3.32244ZM19.5176 12.7662C19.5181 12.6006 19.5841 12.4419 19.7012 12.3248C19.8183 12.2077 19.977 12.1417 20.1426 12.1412C22.187 12.1445 24.1468 12.9581 25.5925 14.4038C27.0381 15.8494 27.8518 17.8092 27.8551 19.8537C27.8551 20.0195 27.7892 20.1784 27.672 20.2956C27.5548 20.4128 27.3958 20.4787 27.2301 20.4787C27.0643 20.4787 26.9053 20.4128 26.7881 20.2956C26.6709 20.1784 26.6051 20.0195 26.6051 19.8537C26.6028 18.1404 25.9212 16.498 24.7097 15.2866C23.4982 14.0751 21.8558 13.3935 20.1426 13.3912C20.0604 13.3914 19.9791 13.3754 19.9031 13.3441C19.8272 13.3128 19.7582 13.2668 19.7001 13.2087C19.642 13.1506 19.596 13.0816 19.5647 13.0057C19.5333 12.9297 19.5173 12.8483 19.5176 12.7662Z" fill="#333333"/>
</svg>
