<svg width="36" height="36" viewBox="0 0 36 36" fill="none" xmlns="http://www.w3.org/2000/svg">
<path d="M32.2398 2.57404C31.8078 2.59383 31.4009 2.71752 31.0392 2.85604H31.0342C30.6675 2.99952 28.9243 3.72184 26.277 4.81521C23.6296 5.91353 20.1936 7.33837 16.7827 8.75332C9.97088 11.5783 3.27464 14.3587 3.27464 14.3587L3.35501 14.329C3.35501 14.329 2.89285 14.4774 2.4106 14.804C2.16445 14.9623 1.89319 15.18 1.65709 15.5213C1.42098 15.8627 1.23009 16.3871 1.30042 16.9264C1.41596 17.8417 2.01877 18.3908 2.45079 18.6926C2.88783 18.9993 3.30478 19.1428 3.30478 19.1428H3.31482L9.59413 21.2257C9.87544 22.1162 11.5081 27.4 11.8999 28.6171C12.131 29.3443 12.357 29.7995 12.6383 30.1458C12.774 30.3239 12.9347 30.4723 13.1256 30.5911C13.201 30.6356 13.2813 30.6702 13.3617 30.6999C13.3868 30.7148 13.4119 30.7197 13.4421 30.7246L13.3768 30.7098C13.3969 30.7147 13.4119 30.7296 13.427 30.7345C13.4772 30.7494 13.5124 30.7543 13.5777 30.7642C14.5724 31.0611 15.3711 30.4525 15.3711 30.4525L15.4163 30.4179L19.1236 27.0933L25.3376 31.7883L25.4783 31.8477C26.7743 32.4068 28.0854 32.0951 28.7787 31.5459C29.4769 30.9918 29.7482 30.2843 29.7482 30.2843L29.7934 30.1705L34.5958 5.94321C34.7314 5.34458 34.7666 4.78552 34.6159 4.24131C34.4652 3.6971 34.0784 3.18752 33.6112 2.91541C33.139 2.63836 32.6718 2.55425 32.2398 2.57404ZM32.1092 5.17142C32.1042 5.25058 32.1192 5.24068 32.0841 5.39405V5.40889L27.3269 29.3839C27.3068 29.4185 27.2716 29.4927 27.1762 29.567C27.0757 29.6461 26.9953 29.6956 26.5784 29.5323L18.9779 23.7934L14.3865 27.9145L15.351 21.849C15.351 21.849 27.2566 10.9203 27.7689 10.4503C28.2813 9.98027 28.1105 9.88133 28.1105 9.88133C28.1457 9.30743 27.3369 9.71312 27.3369 9.71312L11.6789 19.2665L11.6738 19.2418L4.16881 16.7532V16.7483C4.16378 16.7483 4.15374 16.7433 4.14871 16.7433C4.15374 16.7433 4.1889 16.7285 4.1889 16.7285L4.22909 16.7087L4.26928 16.6939C4.26928 16.6939 10.9705 13.9134 17.7823 11.0885C21.1933 9.67354 24.6293 8.24869 27.2716 7.15037C29.914 6.057 31.8681 5.25552 31.9786 5.211C32.0841 5.17142 32.0338 5.17142 32.1092 5.17142Z" fill="white"/>
</svg>
