<svg width="36" height="36" viewBox="0 0 36 36" fill="none" xmlns="http://www.w3.org/2000/svg">
<g clip-path="url(#clip0_1263_368)">
<path d="M34.7326 20.8393C35.8066 11.7988 34.2166 6.09129 31.3486 3.50979L31.3501 3.50829C26.7211 -0.900207 11.0881 -1.55271 5.55012 3.70629C3.06312 6.27879 2.18712 10.0543 2.09112 14.7283C1.99512 19.4038 1.88112 28.1623 10.0426 30.5383H10.0501L10.0426 34.1668C10.0426 34.1668 9.98712 35.6368 10.9261 35.9323C12.0001 36.2803 12.4861 35.5978 15.8266 31.6078C21.4126 32.0923 25.7026 30.9823 26.1901 30.8203C27.3181 30.4423 33.7006 29.5978 34.7326 20.8393ZM16.3771 29.0548C16.3771 29.0548 12.8416 33.4633 11.7421 34.6078C11.3821 34.9798 10.9876 34.9453 10.9936 34.2073C10.9936 33.7228 11.0206 28.1833 11.0206 28.1833C4.10112 26.2003 4.50912 18.7423 4.58412 14.8408C4.65912 10.9378 5.37312 7.74129 7.47912 5.58879C12.3376 1.03329 26.0431 2.05179 29.5351 5.33379C33.8041 9.11829 32.2846 19.8103 32.2936 20.1748C31.4161 27.4858 26.2441 27.9493 25.2931 28.2658C24.8866 28.4008 21.1141 29.3713 16.3771 29.0548Z" fill="white"/>
<path d="M18.333 6.44531C17.7555 6.44531 17.7555 7.34531 18.333 7.35281C22.8135 7.38731 26.5035 10.5103 26.544 16.2388C26.544 16.8433 27.429 16.8358 27.4215 16.2313H27.42C27.372 10.0588 23.343 6.47981 18.333 6.44531Z" fill="white"/>
<path d="M24.2267 15.2891C24.2132 15.8861 25.0967 15.9146 25.1042 15.3101C25.1777 11.9066 23.0792 9.10307 19.1357 8.80757C18.5582 8.76557 18.4982 9.67307 19.0742 9.71507C22.4942 9.97457 24.2957 12.3086 24.2267 15.2891Z" fill="white"/>
<path d="M23.2816 19.1607C22.5406 18.7317 21.7861 18.9987 21.4741 19.4202L20.8216 20.2647C20.4901 20.6937 19.8706 20.6367 19.8706 20.6367C15.3496 19.4412 14.1406 14.7102 14.1406 14.7102C14.1406 14.7102 14.0851 14.0697 14.4991 13.7262L15.3151 13.0512C15.7231 12.7272 15.9811 11.9472 15.5656 11.1807C14.4556 9.17517 13.7101 8.48367 13.3306 7.95267C12.9316 7.45317 12.3316 7.34067 11.7076 7.67817H11.6941C10.3966 8.43717 8.97608 9.85767 9.43058 11.3202C10.2061 12.8622 11.6311 17.7777 16.1731 21.4917C18.3076 23.2482 21.6856 25.0482 23.1196 25.4637L23.1331 25.4847C24.5461 25.9557 25.9201 24.4797 26.6536 23.1432V23.1327C26.9791 22.4862 26.8711 21.8742 26.3956 21.4737C25.5526 20.6517 24.2806 19.7442 23.2816 19.1607Z" fill="white"/>
<path d="M19.7535 12.156C21.195 12.24 21.894 12.993 21.969 14.5395C21.996 15.144 22.8735 15.102 22.8465 14.4975C22.7505 12.4785 21.6975 11.3535 19.8015 11.2485C19.224 11.214 19.17 12.1215 19.7535 12.156Z" fill="white"/>
</g>
<defs>
<clipPath id="clip0_1263_368">
<rect width="36" height="36" fill="white"/>
</clipPath>
</defs>
</svg>
