<svg width="150" height="120" viewBox="0 0 150 120" fill="none" xmlns="http://www.w3.org/2000/svg">
<mask id="path-1-outside-1_1152_48" maskUnits="userSpaceOnUse" x="3" y="15" width="146" height="92" fill="black">
<rect fill="white" x="3" y="15" width="146" height="92"/>
<path d="M40.32 104.2C20.4 104.2 5.28 88.6 5.28 61C5.28 33.4 20.4 17.8 40.32 17.8C60.36 17.8 75.48 33.4 75.48 61C75.48 88.6 60.36 104.2 40.32 104.2ZM40.32 90.64C51.84 90.64 59.76 81.28 59.76 61C59.76 40.72 51.84 31.36 40.32 31.36C28.92 31.36 21 40.72 21 61C21 81.28 28.92 90.64 40.32 90.64ZM106.676 89.8H146.276V103H84.3563V92.56L117.716 60.88C125.876 53.08 127.316 48.16 127.316 43.48C127.316 35.8 122.036 31.36 111.716 31.36C103.556 31.36 96.7163 34.12 92.0363 40.12L81.1163 31.72C87.5963 22.96 99.2363 17.8 113.036 17.8C131.276 17.8 143.036 27.04 143.036 41.92C143.036 50.08 140.756 57.52 129.116 68.44L106.676 89.8Z"/>
</mask>
<path d="M40.32 102.2C30.9148 102.2 22.7221 98.5337 16.8516 91.652C10.9605 84.7462 7.28 74.4448 7.28 61H3.28C3.28 75.1552 7.15946 86.4538 13.8084 94.248C20.4779 102.066 29.8052 106.2 40.32 106.2V102.2ZM7.28 61C7.28 47.5552 10.9605 37.2538 16.8516 30.348C22.7221 23.4663 30.9148 19.8 40.32 19.8V15.8C29.8052 15.8 20.4779 19.9337 13.8084 27.752C7.15946 35.5462 3.28 46.8448 3.28 61H7.28ZM40.32 19.8C49.7887 19.8 58.0111 23.4689 63.895 30.3498C69.7995 37.2548 73.48 47.5551 73.48 61H77.48C77.48 46.8449 73.6005 35.5452 66.935 27.7502C60.2489 19.9311 50.8913 15.8 40.32 15.8V19.8ZM73.48 61C73.48 74.4449 69.7995 84.7452 63.895 91.6502C58.0111 98.5311 49.7887 102.2 40.32 102.2V106.2C50.8913 106.2 60.2489 102.069 66.935 94.2498C73.6005 86.4548 77.48 75.1551 77.48 61H73.48ZM40.32 92.64C46.6971 92.64 52.1834 90.0101 55.9973 84.5736C59.7449 79.2317 61.76 71.3561 61.76 61H57.76C57.76 70.9239 55.8151 77.8683 52.7227 82.2764C49.6966 86.5899 45.4629 88.64 40.32 88.64V92.64ZM61.76 61C61.76 50.6439 59.7449 42.7683 55.9973 37.4264C52.1834 31.9899 46.6971 29.36 40.32 29.36V33.36C45.4629 33.36 49.6966 35.4101 52.7227 39.7236C55.8151 44.1317 57.76 51.0761 57.76 61H61.76ZM40.32 29.36C33.9957 29.36 28.5408 31.9957 24.7454 37.4298C21.0153 42.7701 19 50.6434 19 61H23C23 51.0766 24.9447 44.1299 28.0246 39.7202C31.0392 35.4043 35.2443 33.36 40.32 33.36V29.36ZM19 61C19 71.3566 21.0153 79.2299 24.7454 84.5702C28.5408 90.0043 33.9957 92.64 40.32 92.64V88.64C35.2443 88.64 31.0392 86.5957 28.0247 82.2798C24.9447 77.8701 23 70.9234 23 61H19ZM106.676 89.8L105.297 88.3514L101.674 91.8H106.676V89.8ZM146.276 89.8H148.276V87.8H146.276V89.8ZM146.276 103V105H148.276V103H146.276ZM84.3562 103H82.3562V105H84.3562V103ZM84.3562 92.56L82.979 91.1097L82.3562 91.7011V92.56H84.3562ZM117.716 60.88L119.093 62.3303L119.098 62.3257L117.716 60.88ZM92.0362 40.12L90.8168 41.7052L92.3914 42.9165L93.6133 41.3501L92.0362 40.12ZM81.1162 31.72L79.5084 30.5306L78.3411 32.1085L79.8968 33.3052L81.1162 31.72ZM129.116 68.44L127.748 66.9814L127.743 66.9864L127.737 66.9914L129.116 68.44ZM106.676 91.8H146.276V87.8H106.676V91.8ZM144.276 89.8V103H148.276V89.8H144.276ZM146.276 101H84.3562V105H146.276V101ZM86.3562 103V92.56H82.3562V103H86.3562ZM85.7335 94.0103L119.093 62.3303L116.339 59.4297L82.979 91.1097L85.7335 94.0103ZM119.098 62.3257C123.277 58.3314 125.85 54.9674 127.369 51.8967C128.91 48.7812 129.316 46.0667 129.316 43.48H125.316C125.316 45.5733 125.003 47.6588 123.784 50.1233C122.542 52.6326 120.316 55.6286 116.334 59.4343L119.098 62.3257ZM129.316 43.48C129.316 39.1426 127.8 35.4875 124.629 32.973C121.533 30.5173 117.122 29.36 111.716 29.36V33.36C116.63 33.36 120.02 34.4227 122.143 36.107C124.193 37.7325 125.316 40.1374 125.316 43.48H129.316ZM111.716 29.36C103.078 29.36 95.5955 32.3049 90.4592 38.8899L93.6133 41.3501C97.837 35.9351 104.035 33.36 111.716 33.36V29.36ZM93.2557 38.5347L82.3357 30.1347L79.8968 33.3052L90.8168 41.7052L93.2557 38.5347ZM82.7241 32.9094C88.7361 24.7821 99.7002 19.8 113.036 19.8V15.8C98.7723 15.8 86.4564 21.1379 79.5084 30.5306L82.7241 32.9094ZM113.036 19.8C121.841 19.8 128.857 22.0314 133.628 25.8426C138.35 29.615 141.036 35.0585 141.036 41.92H145.036C145.036 33.9015 141.842 27.285 136.125 22.7174C130.455 18.1886 122.472 15.8 113.036 15.8V19.8ZM141.036 41.92C141.036 45.7856 140.501 49.3742 138.636 53.2839C136.754 57.2292 133.459 61.6236 127.748 66.9814L130.485 69.8986C136.414 64.3364 140.078 59.5508 142.246 55.0061C144.431 50.4258 145.036 46.2144 145.036 41.92H141.036ZM127.737 66.9914L105.297 88.3514L108.055 91.2486L130.495 69.8886L127.737 66.9914Z" fill="#818181" fill-opacity="0.15" mask="url(#path-1-outside-1_1152_48)"/>
</svg>
