<svg width="150" height="120" viewBox="0 0 150 120" fill="none" xmlns="http://www.w3.org/2000/svg">
<mask id="path-1-outside-1_1152_51" maskUnits="userSpaceOnUse" x="3" y="15" width="144" height="92" fill="black">
<rect fill="white" x="3" y="15" width="144" height="92"/>
<path d="M40.32 104.2C33.68 104.2 27.68 102.52 22.32 99.16C17.04 95.8 12.88 90.92 9.84 84.52C6.8 78.04 5.28 70.2 5.28 61C5.28 51.8 6.8 44 9.84 37.6C12.88 31.12 17.04 26.2 22.32 22.84C27.68 19.48 33.68 17.8 40.32 17.8C47.04 17.8 53.04 19.48 58.32 22.84C63.6 26.2 67.76 31.12 70.8 37.6C73.92 44 75.48 51.8 75.48 61C75.48 70.2 73.92 78.04 70.8 84.52C67.76 90.92 63.6 95.8 58.32 99.16C53.04 102.52 47.04 104.2 40.32 104.2ZM40.32 90.64C44.24 90.64 47.64 89.6 50.52 87.52C53.4 85.36 55.64 82.08 57.24 77.68C58.92 73.28 59.76 67.72 59.76 61C59.76 54.2 58.92 48.64 57.24 44.32C55.64 39.92 53.4 36.68 50.52 34.6C47.64 32.44 44.24 31.36 40.32 31.36C36.56 31.36 33.2 32.44 30.24 34.6C27.36 36.68 25.08 39.92 23.4 44.32C21.8 48.64 21 54.2 21 61C21 67.72 21.8 73.28 23.4 77.68C25.08 82.08 27.36 85.36 30.24 87.52C33.2 89.6 36.56 90.64 40.32 90.64ZM111.25 104.2C105.33 104.2 99.5303 103.36 93.8503 101.68C88.2503 99.92 83.5303 97.52 79.6903 94.48L86.4103 82.36C89.4503 84.84 93.1303 86.84 97.4503 88.36C101.77 89.88 106.29 90.64 111.01 90.64C116.61 90.64 120.97 89.52 124.09 87.28C127.21 84.96 128.77 81.84 128.77 77.92C128.77 74.08 127.33 71.04 124.45 68.8C121.57 66.56 116.93 65.44 110.53 65.44H102.85V54.76L126.85 26.2L128.89 32.08H83.7703V19H141.01V29.44L117.01 58L108.85 53.2H113.53C123.85 53.2 131.57 55.52 136.69 60.16C141.89 64.72 144.49 70.6 144.49 77.8C144.49 82.52 143.29 86.88 140.89 90.88C138.49 94.88 134.81 98.12 129.85 100.6C124.97 103 118.77 104.2 111.25 104.2Z"/>
</mask>
<path d="M22.32 99.16L21.2462 100.847L21.2577 100.855L22.32 99.16ZM9.84 84.52L8.02933 85.3694L8.03345 85.3781L9.84 84.52ZM9.84 37.6L11.6466 38.4581L11.6507 38.4494L9.84 37.6ZM22.32 22.84L21.2577 21.1454L21.2463 21.1527L22.32 22.84ZM58.32 22.84L59.3938 21.1527L58.32 22.84ZM70.8 37.6L68.9894 38.4494L68.9957 38.463L69.0023 38.4764L70.8 37.6ZM70.8 84.52L68.998 83.6524L68.9934 83.6619L70.8 84.52ZM58.32 99.16L57.2463 97.4727L58.32 99.16ZM50.52 87.52L51.691 89.1414L51.7056 89.1308L51.72 89.12L50.52 87.52ZM57.24 77.68L55.3716 76.9666L55.3659 76.9815L55.3604 76.9965L57.24 77.68ZM57.24 44.32L55.3604 45.0035L55.368 45.0243L55.376 45.0449L57.24 44.32ZM50.52 34.6L49.32 36.2L49.3344 36.2108L49.349 36.2214L50.52 34.6ZM30.24 34.6L31.411 36.2214L31.4189 36.2156L30.24 34.6ZM23.4 44.32L21.5316 43.6066L21.528 43.616L21.5245 43.6254L23.4 44.32ZM23.4 77.68L21.5204 78.3635L21.5259 78.3785L21.5316 78.3934L23.4 77.68ZM30.24 87.52L29.04 89.12L29.0648 89.1386L29.0901 89.1564L30.24 87.52ZM40.32 102.2C34.0362 102.2 28.4077 100.616 23.3823 97.4654L21.2577 100.855C26.9523 104.424 33.3238 106.2 40.32 106.2V102.2ZM23.3938 97.4727C18.4716 94.3404 14.547 89.7682 11.6466 83.6619L8.03345 85.3781C11.213 92.0718 15.6084 97.2596 21.2463 100.847L23.3938 97.4727ZM11.6507 83.6706C8.76562 77.5209 7.28 69.9871 7.28 61H3.28C3.28 70.4129 4.83438 78.5591 8.02935 85.3694L11.6507 83.6706ZM7.28 61C7.28 52.0117 8.76601 44.5224 11.6466 38.4581L8.03345 36.7419C4.83399 43.4776 3.28 51.5883 3.28 61H7.28ZM11.6507 38.4494C14.5532 32.2624 18.478 27.6555 23.3938 24.5273L21.2463 21.1527C15.602 24.7445 11.2068 29.9776 8.02935 36.7506L11.6507 38.4494ZM23.3823 24.5346C28.4077 21.3843 34.0362 19.8 40.32 19.8V15.8C33.3238 15.8 26.9523 17.5757 21.2577 21.1454L23.3823 24.5346ZM40.32 19.8C46.6889 19.8 52.311 21.3867 57.2463 24.5273L59.3938 21.1527C53.769 17.5733 47.3911 15.8 40.32 15.8V19.8ZM57.2463 24.5273C62.162 27.6555 66.0868 32.2624 68.9894 38.4494L72.6107 36.7506C69.4332 29.9776 65.038 24.7445 59.3938 21.1527L57.2463 24.5273ZM69.0023 38.4764C71.9562 44.5357 73.48 52.0181 73.48 61H77.48C77.48 51.5819 75.8839 43.4643 72.5978 36.7236L69.0023 38.4764ZM73.48 61C73.48 69.9807 71.9566 77.5077 68.998 83.6524L72.602 85.3876C75.8835 78.5723 77.48 70.4193 77.48 61H73.48ZM68.9934 83.6619C66.093 89.7682 62.1684 94.3404 57.2463 97.4727L59.3938 100.847C65.0316 97.2596 69.427 92.0718 72.6066 85.3781L68.9934 83.6619ZM57.2463 97.4727C52.311 100.613 46.6889 102.2 40.32 102.2V106.2C47.3911 106.2 53.769 104.427 59.3938 100.847L57.2463 97.4727ZM40.32 92.64C44.6148 92.64 48.4349 91.493 51.691 89.1414L49.349 85.8986C46.8451 87.707 43.8652 88.64 40.32 88.64V92.64ZM51.72 89.12C54.9915 86.6663 57.4262 83.0203 59.1196 78.3635L55.3604 76.9965C53.8538 81.1397 51.8085 84.0536 49.32 85.92L51.72 89.12ZM59.1084 78.3934C60.904 73.6907 61.76 67.8682 61.76 61H57.76C57.76 67.5718 56.936 72.8693 55.3716 76.9666L59.1084 78.3934ZM61.76 61C61.76 54.0574 60.9055 48.2275 59.104 43.5951L55.376 45.0449C56.9345 49.0525 57.76 54.3426 57.76 61H61.76ZM59.1196 43.6365C57.4256 38.978 54.9845 35.3573 51.691 32.9786L49.349 36.2214C51.8155 38.0027 53.8544 40.862 55.3604 45.0035L59.1196 43.6365ZM51.72 33C48.4626 30.5569 44.632 29.36 40.32 29.36V33.36C43.848 33.36 46.8174 34.3231 49.32 36.2L51.72 33ZM40.32 29.36C36.1481 29.36 32.3729 30.5677 29.0611 32.9844L31.4189 36.2156C34.0271 34.3123 36.9719 33.36 40.32 33.36V29.36ZM29.069 32.9786C25.7853 35.3502 23.3062 38.9587 21.5316 43.6066L25.2684 45.0334C26.8538 40.8813 28.9347 38.0098 31.411 36.2214L29.069 32.9786ZM21.5245 43.6254C19.8129 48.2468 19 54.0652 19 61H23C23 54.3348 23.7871 49.0332 25.2755 45.0146L21.5245 43.6254ZM19 61C19 67.8603 19.8142 73.6715 21.5204 78.3635L25.2796 76.9965C23.7858 72.8885 23 67.5797 23 61H19ZM21.5316 78.3934C23.3055 83.0394 25.7781 86.6735 29.04 89.12L31.44 85.92C28.9419 84.0465 26.8545 81.1206 25.2684 76.9666L21.5316 78.3934ZM29.0901 89.1564C32.4007 91.4827 36.1656 92.64 40.32 92.64V88.64C36.9544 88.64 33.9993 87.7173 31.3899 85.8836L29.0901 89.1564ZM93.8503 101.68L93.2507 103.588L93.2668 103.593L93.2831 103.598L93.8503 101.68ZM79.6903 94.48L77.9412 93.5102L77.1181 94.9946L78.4489 96.0481L79.6903 94.48ZM86.4103 82.36L87.6746 80.8103L85.8211 79.2982L84.6612 81.3902L86.4103 82.36ZM97.4503 88.36L98.1141 86.4734L97.4503 88.36ZM124.09 87.28L125.257 88.9046L125.27 88.8949L125.284 88.8849L124.09 87.28ZM124.45 68.8L125.678 67.2213L124.45 68.8ZM102.85 65.44H100.85V67.44H102.85V65.44ZM102.85 54.76L101.319 53.4733L100.85 54.0312V54.76H102.85ZM126.85 26.2L128.74 25.5445L127.585 22.2166L125.319 24.9133L126.85 26.2ZM128.89 32.08V34.08H131.701L130.78 31.4245L128.89 32.08ZM83.7703 32.08H81.7703V34.08H83.7703V32.08ZM83.7703 19V17H81.7703V19H83.7703ZM141.01 19H143.01V17H141.01V19ZM141.01 29.44L142.541 30.7267L143.01 30.1688V29.44H141.01ZM117.01 58L115.996 59.7239L117.454 60.5812L118.541 59.2867L117.01 58ZM108.85 53.2V51.2H101.506L107.836 54.9239L108.85 53.2ZM136.69 60.16L135.347 61.642L135.359 61.6529L135.372 61.6637L136.69 60.16ZM140.89 90.88L142.605 91.909L140.89 90.88ZM129.85 100.6L130.733 102.395L130.745 102.389L129.85 100.6ZM111.25 102.2C105.522 102.2 99.9135 101.388 94.4176 99.7621L93.2831 103.598C99.1471 105.332 105.138 106.2 111.25 106.2V102.2ZM94.45 99.772C89.0378 98.071 84.5465 95.7736 80.9317 92.9119L78.4489 96.0481C82.5141 99.2664 87.4629 101.769 93.2507 103.588L94.45 99.772ZM81.4394 95.4498L88.1594 83.3298L84.6612 81.3902L77.9412 93.5102L81.4394 95.4498ZM85.1461 83.9097C88.3924 86.5581 92.2841 88.6625 96.7865 90.2466L98.1141 86.4734C93.9765 85.0175 90.5082 83.1219 87.6746 80.8103L85.1461 83.9097ZM96.7865 90.2466C101.326 91.844 106.071 92.64 111.01 92.64V88.64C106.509 88.64 102.214 87.916 98.1141 86.4734L96.7865 90.2466ZM111.01 92.64C116.846 92.64 121.673 91.4774 125.257 88.9046L122.924 85.6553C120.267 87.5626 116.375 88.64 111.01 88.64V92.64ZM125.284 88.8849C128.916 86.1839 130.77 82.4663 130.77 77.92H126.77C126.77 81.2137 125.505 83.7361 122.897 85.6751L125.284 88.8849ZM130.77 77.92C130.77 73.5004 129.074 69.8627 125.678 67.2213L123.222 70.3787C125.586 72.2173 126.77 74.6596 126.77 77.92H130.77ZM125.678 67.2213C122.267 64.5685 117.075 63.44 110.53 63.44V67.44C116.785 67.44 120.873 68.5515 123.222 70.3787L125.678 67.2213ZM110.53 63.44H102.85V67.44H110.53V63.44ZM104.85 65.44V54.76H100.85V65.44H104.85ZM104.381 56.0467L128.381 27.4867L125.319 24.9133L101.319 53.4733L104.381 56.0467ZM124.961 26.8555L127.001 32.7355L130.78 31.4245L128.74 25.5445L124.961 26.8555ZM128.89 30.08H83.7703V34.08H128.89V30.08ZM85.7703 32.08V19H81.7703V32.08H85.7703ZM83.7703 21H141.01V17H83.7703V21ZM139.01 19V29.44H143.01V19H139.01ZM139.479 28.1533L115.479 56.7133L118.541 59.2867L142.541 30.7267L139.479 28.1533ZM118.024 56.2761L109.864 51.4761L107.836 54.9239L115.996 59.7239L118.024 56.2761ZM108.85 55.2H113.53V51.2H108.85V55.2ZM113.53 55.2C123.593 55.2 130.74 57.467 135.347 61.642L138.033 58.678C132.4 53.573 124.108 51.2 113.53 51.2V55.2ZM135.372 61.6637C140.119 65.8266 142.49 71.149 142.49 77.8H146.49C146.49 70.051 143.662 63.6134 138.009 58.6563L135.372 61.6637ZM142.49 77.8C142.49 82.162 141.387 86.1657 139.175 89.851L142.605 91.909C145.194 87.5943 146.49 82.878 146.49 77.8H142.49ZM139.175 89.851C137.005 93.4676 133.641 96.4687 128.956 98.8111L130.745 102.389C135.98 99.7713 139.975 96.2924 142.605 91.909L139.175 89.851ZM128.968 98.8053C124.447 101.029 118.575 102.2 111.25 102.2V106.2C118.966 106.2 125.494 104.971 130.733 102.395L128.968 98.8053Z" fill="#818181" fill-opacity="0.15" mask="url(#path-1-outside-1_1152_51)"/>
</svg>
