<svg width="163" height="120" viewBox="0 0 163 120" fill="none" xmlns="http://www.w3.org/2000/svg">
<mask id="path-1-outside-1_1152_36" maskUnits="userSpaceOnUse" x="3" y="15" width="160" height="92" fill="black">
<rect fill="white" x="3" y="15" width="160" height="92"/>
<path d="M40.32 104.2C20.4 104.2 5.28 88.6 5.28 61C5.28 33.4 20.4 17.8 40.32 17.8C60.36 17.8 75.48 33.4 75.48 61C75.48 88.6 60.36 104.2 40.32 104.2ZM40.32 90.64C51.84 90.64 59.76 81.28 59.76 61C59.76 40.72 51.84 31.36 40.32 31.36C28.92 31.36 21 40.72 21 61C21 81.28 28.92 90.64 40.32 90.64ZM160.902 70.72V83.92H146.022V103H130.902V83.92H84.8222V73.12L126.222 19H142.902L103.902 70.72H131.382V53.8H146.022V70.72H160.902Z"/>
</mask>
<path d="M40.32 102.2C30.9148 102.2 22.7221 98.5337 16.8516 91.652C10.9605 84.7462 7.28 74.4448 7.28 61H3.28C3.28 75.1552 7.15946 86.4538 13.8084 94.248C20.4779 102.066 29.8052 106.2 40.32 106.2V102.2ZM7.28 61C7.28 47.5552 10.9605 37.2538 16.8516 30.348C22.7221 23.4663 30.9148 19.8 40.32 19.8V15.8C29.8052 15.8 20.4779 19.9337 13.8084 27.752C7.15946 35.5462 3.28 46.8448 3.28 61H7.28ZM40.32 19.8C49.7887 19.8 58.0111 23.4689 63.895 30.3498C69.7995 37.2548 73.48 47.5551 73.48 61H77.48C77.48 46.8449 73.6005 35.5452 66.935 27.7502C60.2489 19.9311 50.8913 15.8 40.32 15.8V19.8ZM73.48 61C73.48 74.4449 69.7995 84.7452 63.895 91.6502C58.0111 98.5311 49.7887 102.2 40.32 102.2V106.2C50.8913 106.2 60.2489 102.069 66.935 94.2498C73.6005 86.4548 77.48 75.1551 77.48 61H73.48ZM40.32 92.64C46.6971 92.64 52.1834 90.0101 55.9973 84.5736C59.7449 79.2317 61.76 71.3561 61.76 61H57.76C57.76 70.9239 55.8151 77.8683 52.7227 82.2764C49.6966 86.5899 45.4629 88.64 40.32 88.64V92.64ZM61.76 61C61.76 50.6439 59.7449 42.7683 55.9973 37.4264C52.1834 31.9899 46.6971 29.36 40.32 29.36V33.36C45.4629 33.36 49.6966 35.4101 52.7227 39.7236C55.8151 44.1317 57.76 51.0761 57.76 61H61.76ZM40.32 29.36C33.9957 29.36 28.5408 31.9957 24.7454 37.4298C21.0153 42.7701 19 50.6434 19 61H23C23 51.0766 24.9447 44.1299 28.0246 39.7202C31.0392 35.4043 35.2443 33.36 40.32 33.36V29.36ZM19 61C19 71.3566 21.0153 79.2299 24.7454 84.5702C28.5408 90.0043 33.9957 92.64 40.32 92.64V88.64C35.2443 88.64 31.0392 86.5957 28.0247 82.2798C24.9447 77.8701 23 70.9234 23 61H19ZM160.902 70.72H162.902V68.72H160.902V70.72ZM160.902 83.92V85.92H162.902V83.92H160.902ZM146.022 83.92V81.92H144.022V83.92H146.022ZM146.022 103V105H148.022V103H146.022ZM130.902 103H128.902V105H130.902V103ZM130.902 83.92H132.902V81.92H130.902V83.92ZM84.8222 83.92H82.8222V85.92H84.8222V83.92ZM84.8222 73.12L83.2337 71.9048L82.8222 72.4427V73.12H84.8222ZM126.222 19V17H125.234L124.634 17.7848L126.222 19ZM142.902 19L144.499 20.2041L146.915 17H142.902V19ZM103.902 70.72L102.305 69.5159L99.8892 72.72H103.902V70.72ZM131.382 70.72V72.72H133.382V70.72H131.382ZM131.382 53.8V51.8H129.382V53.8H131.382ZM146.022 53.8H148.022V51.8H146.022V53.8ZM146.022 70.72H144.022V72.72H146.022V70.72ZM158.902 70.72V83.92H162.902V70.72H158.902ZM160.902 81.92H146.022V85.92H160.902V81.92ZM144.022 83.92V103H148.022V83.92H144.022ZM146.022 101H130.902V105H146.022V101ZM132.902 103V83.92H128.902V103H132.902ZM130.902 81.92H84.8222V85.92H130.902V81.92ZM86.8222 83.92V73.12H82.8222V83.92H86.8222ZM86.4107 74.3352L127.811 20.2152L124.634 17.7848L83.2337 71.9048L86.4107 74.3352ZM126.222 21H142.902V17H126.222V21ZM141.305 17.7958L102.305 69.5159L105.499 71.9241L144.499 20.2041L141.305 17.7958ZM103.902 72.72H131.382V68.72H103.902V72.72ZM133.382 70.72V53.8H129.382V70.72H133.382ZM131.382 55.8H146.022V51.8H131.382V55.8ZM144.022 53.8V70.72H148.022V53.8H144.022ZM146.022 72.72H160.902V68.72H146.022V72.72Z" fill="#818181" fill-opacity="0.15" mask="url(#path-1-outside-1_1152_36)"/>
</svg>
