<svg width="151" height="120" viewBox="0 0 151 120" fill="none" xmlns="http://www.w3.org/2000/svg">
<mask id="path-1-outside-1_1152_40" maskUnits="userSpaceOnUse" x="3" y="15" width="147" height="92" fill="black">
<rect fill="white" x="3" y="15" width="147" height="92"/>
<path d="M40.32 104.2C20.4 104.2 5.28 88.6 5.28 61C5.28 33.4 20.4 17.8 40.32 17.8C60.36 17.8 75.48 33.4 75.48 61C75.48 88.6 60.36 104.2 40.32 104.2ZM40.32 90.64C51.84 90.64 59.76 81.28 59.76 61C59.76 40.72 51.84 31.36 40.32 31.36C28.92 31.36 21 40.72 21 61C21 81.28 28.92 90.64 40.32 90.64ZM112.302 51.52C137.142 51.52 147.102 62.32 147.102 77.2C147.102 91.96 136.422 104.2 113.862 104.2C101.982 104.2 89.9822 100.6 82.3022 94.48L88.9022 82.36C95.0222 87.4 104.142 90.64 113.622 90.64C124.782 90.64 131.382 85.72 131.382 77.8C131.382 69.76 126.222 64.72 108.822 64.72H88.5422L92.8622 19H142.182V32.08H106.062L104.262 51.52H112.302Z"/>
</mask>
<path d="M40.32 102.2C30.9148 102.2 22.7221 98.5337 16.8516 91.652C10.9605 84.7462 7.28 74.4448 7.28 61H3.28C3.28 75.1552 7.15946 86.4538 13.8084 94.248C20.4779 102.066 29.8052 106.2 40.32 106.2V102.2ZM7.28 61C7.28 47.5552 10.9605 37.2538 16.8516 30.348C22.7221 23.4663 30.9148 19.8 40.32 19.8V15.8C29.8052 15.8 20.4779 19.9337 13.8084 27.752C7.15946 35.5462 3.28 46.8448 3.28 61H7.28ZM40.32 19.8C49.7887 19.8 58.0111 23.4689 63.895 30.3498C69.7995 37.2548 73.48 47.5551 73.48 61H77.48C77.48 46.8449 73.6005 35.5452 66.935 27.7502C60.2489 19.9311 50.8913 15.8 40.32 15.8V19.8ZM73.48 61C73.48 74.4449 69.7995 84.7452 63.895 91.6502C58.0111 98.5311 49.7887 102.2 40.32 102.2V106.2C50.8913 106.2 60.2489 102.069 66.935 94.2498C73.6005 86.4548 77.48 75.1551 77.48 61H73.48ZM40.32 92.64C46.6971 92.64 52.1834 90.0101 55.9973 84.5736C59.7449 79.2317 61.76 71.3561 61.76 61H57.76C57.76 70.9239 55.8151 77.8683 52.7227 82.2764C49.6966 86.5899 45.4629 88.64 40.32 88.64V92.64ZM61.76 61C61.76 50.6439 59.7449 42.7683 55.9973 37.4264C52.1834 31.9899 46.6971 29.36 40.32 29.36V33.36C45.4629 33.36 49.6966 35.4101 52.7227 39.7236C55.8151 44.1317 57.76 51.0761 57.76 61H61.76ZM40.32 29.36C33.9957 29.36 28.5408 31.9957 24.7454 37.4298C21.0153 42.7701 19 50.6434 19 61H23C23 51.0766 24.9447 44.1299 28.0246 39.7202C31.0392 35.4043 35.2443 33.36 40.32 33.36V29.36ZM19 61C19 71.3566 21.0153 79.2299 24.7454 84.5702C28.5408 90.0043 33.9957 92.64 40.32 92.64V88.64C35.2443 88.64 31.0392 86.5957 28.0247 82.2798C24.9447 77.8701 23 70.9234 23 61H19ZM82.3022 94.48L80.5457 93.5235L79.7429 94.9979L81.0558 96.0441L82.3022 94.48ZM88.9022 82.36L90.1736 80.8161L88.304 79.2765L87.1457 81.4035L88.9022 82.36ZM88.5422 64.72L86.5511 64.5319L86.3443 66.72H88.5422V64.72ZM92.8622 19V17H91.0423L90.8711 18.8119L92.8622 19ZM142.182 19H144.182V17H142.182V19ZM142.182 32.08V34.08H144.182V32.08H142.182ZM106.062 32.08V30.08H104.239L104.071 31.8956L106.062 32.08ZM104.262 51.52L102.271 51.3356L102.068 53.52H104.262V51.52ZM112.302 53.52C124.472 53.52 132.65 56.1707 137.754 60.3303C142.793 64.4374 145.102 70.235 145.102 77.2H149.102C149.102 69.285 146.432 62.2426 140.281 57.2297C134.194 52.2693 124.973 49.52 112.302 49.52V53.52ZM145.102 77.2C145.102 84.0799 142.626 90.2619 137.61 94.7436C132.578 99.2394 124.789 102.2 113.862 102.2V106.2C125.496 106.2 134.327 103.041 140.275 97.7264C146.239 92.3981 149.102 85.0801 149.102 77.2H145.102ZM113.862 102.2C102.317 102.2 90.7918 98.6878 83.5486 92.9159L81.0558 96.0441C89.1726 102.512 101.648 106.2 113.862 106.2V102.2ZM84.0586 95.4365L90.6586 83.3165L87.1457 81.4035L80.5457 93.5235L84.0586 95.4365ZM87.6308 83.9039C94.1438 89.2675 103.726 92.64 113.622 92.64V88.64C104.559 88.64 95.9006 85.5325 90.1736 80.8161L87.6308 83.9039ZM113.622 92.64C119.463 92.64 124.367 91.357 127.865 88.8061C131.436 86.2027 133.382 82.3873 133.382 77.8H129.382C129.382 81.1327 128.028 83.7373 125.509 85.5739C122.918 87.463 118.942 88.64 113.622 88.64V92.64ZM133.382 77.8C133.382 73.2815 131.885 69.2926 127.721 66.5709C123.756 63.9791 117.63 62.72 108.822 62.72V66.72C117.415 66.72 122.568 67.9809 125.533 69.9191C128.299 71.7274 129.382 74.2785 129.382 77.8H133.382ZM108.822 62.72H88.5422V66.72H108.822V62.72ZM90.5333 64.9081L94.8533 19.1881L90.8711 18.8119L86.5511 64.5319L90.5333 64.9081ZM92.8622 21H142.182V17H92.8622V21ZM140.182 19V32.08H144.182V19H140.182ZM142.182 30.08H106.062V34.08H142.182V30.08ZM104.071 31.8956L102.271 51.3356L106.254 51.7044L108.054 32.2644L104.071 31.8956ZM104.262 53.52H112.302V49.52H104.262V53.52Z" fill="#818181" fill-opacity="0.15" mask="url(#path-1-outside-1_1152_40)"/>
</svg>
